<svg width="16" height="17" viewBox="0 0 16 17" fill="none" xmlns="http://www.w3.org/2000/svg">
<path d="M7.96537 10.4429C10.2528 10.4429 12.206 10.8056 12.206 12.2567C12.206 13.7073 10.2654 14.0832 7.96537 14.0832C5.67791 14.0832 3.72474 13.7205 3.72474 12.2699C3.72474 10.8188 5.66538 10.4429 7.96537 10.4429ZM11.6227 9.56909C12.4972 9.55288 13.4374 9.67296 13.7848 9.75822C14.5209 9.90291 15.005 10.1983 15.2055 10.6276C15.3751 10.98 15.3751 11.3889 15.2055 11.7408C14.8987 12.4066 13.9096 12.6203 13.5252 12.6756C13.4458 12.6876 13.3819 12.6185 13.3903 12.5387C13.5866 10.6936 12.0245 9.81886 11.6203 9.61772C11.603 9.60872 11.5995 9.59491 11.6012 9.5865C11.6024 9.5805 11.6096 9.57089 11.6227 9.56909ZM4.21174 9.56785L4.37642 9.56933C4.38955 9.57113 4.39611 9.58074 4.39731 9.58614C4.3991 9.59515 4.39552 9.60836 4.3788 9.61796C3.97408 9.8191 2.4119 10.6939 2.60829 12.5383C2.61665 12.6188 2.55338 12.6872 2.47398 12.6758C2.08956 12.6206 1.10044 12.4068 0.793611 11.741C0.623484 11.3886 0.623484 10.9803 0.793611 10.6278C0.994181 10.1986 1.4777 9.90315 2.21372 9.75786C2.56173 9.6732 3.50131 9.55312 4.37642 9.56933L4.21174 9.56785ZM7.96537 3.4165C9.52277 3.4165 10.7716 4.67135 10.7716 6.23841C10.7716 7.80486 9.52277 9.06091 7.96537 9.06091C6.40797 9.06091 5.15918 7.80486 5.15918 6.23841C5.15918 4.67135 6.40797 3.4165 7.96537 3.4165ZM11.775 3.8871C13.2792 3.8871 14.4606 5.31066 14.0582 6.89633C13.7866 7.96385 12.8035 8.67293 11.7081 8.64411C11.5983 8.6411 11.4902 8.6309 11.3857 8.61288C11.3099 8.59968 11.2717 8.51382 11.3147 8.45018C11.7326 7.83176 11.9707 7.08786 11.9707 6.28932C11.9707 5.45596 11.7105 4.67903 11.2586 4.04201C11.2443 4.02219 11.2335 3.99157 11.2479 3.96876C11.2598 3.95014 11.2819 3.94054 11.3028 3.93573C11.455 3.90451 11.6114 3.8871 11.775 3.8871ZM4.2233 3.88704C4.38686 3.88704 4.54326 3.90445 4.69607 3.93567C4.71637 3.94048 4.73905 3.95068 4.75099 3.9687C4.76472 3.99151 4.75457 4.02213 4.74025 4.04195C4.28837 4.67897 4.0281 5.4559 4.0281 6.28926C4.0281 7.0878 4.26628 7.8317 4.68414 8.45012C4.72712 8.51376 4.68891 8.59962 4.6131 8.61283C4.50804 8.63144 4.40059 8.64104 4.29076 8.64405C3.19538 8.67287 2.21223 7.96379 1.94062 6.89627C1.53769 5.3106 2.71902 3.88704 4.2233 3.88704Z" fill="#666666"/>
</svg>
