<svg width="140" height="25" viewBox="0 0 140 25" fill="none" xmlns="http://www.w3.org/2000/svg">
<path d="M0.792 9.552C0.792 7.888 1.152 6.408 1.872 5.112C2.592 3.8 3.592 2.784 4.872 2.064C6.168 1.328 7.632 0.959999 9.264 0.959999C11.264 0.959999 12.976 1.488 14.4 2.544C15.824 3.6 16.776 5.04 17.256 6.864H12.744C12.408 6.16 11.928 5.624 11.304 5.256C10.696 4.888 10 4.704 9.216 4.704C7.952 4.704 6.928 5.144 6.144 6.024C5.36 6.904 4.968 8.08 4.968 9.552C4.968 11.024 5.36 12.2 6.144 13.08C6.928 13.96 7.952 14.4 9.216 14.4C10 14.4 10.696 14.216 11.304 13.848C11.928 13.48 12.408 12.944 12.744 12.24H17.256C16.776 14.064 15.824 15.504 14.4 16.56C12.976 17.6 11.264 18.12 9.264 18.12C7.632 18.12 6.168 17.76 4.872 17.04C3.592 16.304 2.592 15.288 1.872 13.992C1.152 12.696 0.792 11.216 0.792 9.552ZM25.1453 18.192C23.8333 18.192 22.6493 17.912 21.5933 17.352C20.5533 16.792 19.7293 15.992 19.1213 14.952C18.5293 13.912 18.2333 12.696 18.2333 11.304C18.2333 9.928 18.5373 8.72 19.1453 7.68C19.7533 6.624 20.5853 5.816 21.6413 5.256C22.6973 4.696 23.8813 4.416 25.1933 4.416C26.5053 4.416 27.6893 4.696 28.7453 5.256C29.8013 5.816 30.6333 6.624 31.2413 7.68C31.8493 8.72 32.1533 9.928 32.1533 11.304C32.1533 12.68 31.8413 13.896 31.2173 14.952C30.6093 15.992 29.7693 16.792 28.6973 17.352C27.6413 17.912 26.4573 18.192 25.1453 18.192ZM25.1453 14.64C25.9293 14.64 26.5933 14.352 27.1373 13.776C27.6973 13.2 27.9773 12.376 27.9773 11.304C27.9773 10.232 27.7053 9.408 27.1613 8.832C26.6333 8.256 25.9773 7.968 25.1933 7.968C24.3933 7.968 23.7293 8.256 23.2013 8.832C22.6733 9.392 22.4093 10.216 22.4093 11.304C22.4093 12.376 22.6653 13.2 23.1773 13.776C23.7053 14.352 24.3613 14.64 25.1453 14.64ZM50.6985 4.464C52.3625 4.464 53.6825 4.968 54.6585 5.976C55.6505 6.984 56.1465 8.384 56.1465 10.176V18H52.0665V10.728C52.0665 9.864 51.8345 9.2 51.3705 8.736C50.9225 8.256 50.2985 8.016 49.4985 8.016C48.6985 8.016 48.0665 8.256 47.6025 8.736C47.1545 9.2 46.9305 9.864 46.9305 10.728V18H42.8505V10.728C42.8505 9.864 42.6185 9.2 42.1545 8.736C41.7065 8.256 41.0825 8.016 40.2825 8.016C39.4825 8.016 38.8505 8.256 38.3865 8.736C37.9385 9.2 37.7145 9.864 37.7145 10.728V18H33.6105V4.608H37.7145V6.288C38.1305 5.728 38.6745 5.288 39.3465 4.968C40.0185 4.632 40.7785 4.464 41.6265 4.464C42.6345 4.464 43.5305 4.68 44.3145 5.112C45.1145 5.544 45.7385 6.16 46.1865 6.96C46.6505 6.224 47.2825 5.624 48.0825 5.16C48.8825 4.696 49.7545 4.464 50.6985 4.464ZM62.4008 6.504C62.8008 5.88 63.3528 5.376 64.0568 4.992C64.7608 4.608 65.5848 4.416 66.5288 4.416C67.6328 4.416 68.6328 4.696 69.5288 5.256C70.4248 5.816 71.1288 6.616 71.6408 7.656C72.1688 8.696 72.4328 9.904 72.4328 11.28C72.4328 12.656 72.1688 13.872 71.6408 14.928C71.1288 15.968 70.4248 16.776 69.5288 17.352C68.6328 17.912 67.6328 18.192 66.5288 18.192C65.6008 18.192 64.7768 18 64.0568 17.616C63.3528 17.232 62.8008 16.736 62.4008 16.128V24.384H58.2968V4.608H62.4008V6.504ZM68.2568 11.28C68.2568 10.256 67.9688 9.456 67.3928 8.88C66.8328 8.288 66.1368 7.992 65.3048 7.992C64.4888 7.992 63.7928 8.288 63.2168 8.88C62.6568 9.472 62.3768 10.28 62.3768 11.304C62.3768 12.328 62.6568 13.136 63.2168 13.728C63.7928 14.32 64.4888 14.616 65.3048 14.616C66.1208 14.616 66.8168 14.32 67.3928 13.728C67.9688 13.12 68.2568 12.304 68.2568 11.28ZM73.0498 11.28C73.0498 9.904 73.3058 8.696 73.8178 7.656C74.3458 6.616 75.0578 5.816 75.9538 5.256C76.8498 4.696 77.8498 4.416 78.9538 4.416C79.8978 4.416 80.7218 4.608 81.4258 4.992C82.1458 5.376 82.6978 5.88 83.0818 6.504V4.608H87.1858V18H83.0818V16.104C82.6818 16.728 82.1218 17.232 81.4018 17.616C80.6978 18 79.8738 18.192 78.9298 18.192C77.8418 18.192 76.8498 17.912 75.9538 17.352C75.0578 16.776 74.3458 15.968 73.8178 14.928C73.3058 13.872 73.0498 12.656 73.0498 11.28ZM83.0818 11.304C83.0818 10.28 82.7938 9.472 82.2178 8.88C81.6578 8.288 80.9698 7.992 80.1538 7.992C79.3378 7.992 78.6418 8.288 78.0658 8.88C77.5058 9.456 77.2258 10.256 77.2258 11.28C77.2258 12.304 77.5058 13.12 78.0658 13.728C78.6418 14.32 79.3378 14.616 80.1538 14.616C80.9698 14.616 81.6578 14.32 82.2178 13.728C82.7938 13.136 83.0818 12.328 83.0818 11.304ZM97.5949 4.464C99.1629 4.464 100.411 4.976 101.339 6C102.283 7.008 102.755 8.4 102.755 10.176V18H98.6749V10.728C98.6749 9.832 98.4429 9.136 97.9789 8.64C97.5149 8.144 96.8909 7.896 96.1069 7.896C95.3229 7.896 94.6989 8.144 94.2349 8.64C93.7709 9.136 93.5389 9.832 93.5389 10.728V18H89.4349V4.608H93.5389V6.384C93.9549 5.792 94.5149 5.328 95.2189 4.992C95.9229 4.64 96.7149 4.464 97.5949 4.464ZM118.567 4.608L110.167 24.36H105.751L108.823 17.544L103.375 4.608H107.959L111.055 12.984L114.127 4.608H118.567ZM134.185 15.024H127.897L126.889 18H122.593L128.689 1.152H133.441L139.537 18H135.193L134.185 15.024ZM133.129 11.856L131.041 5.688L128.977 11.856H133.129Z" fill="#FF8303"/>
</svg>
