<svg width="16" height="17" viewBox="0 0 16 17" fill="none" xmlns="http://www.w3.org/2000/svg">
<g clip-path="url(#clip0_66_3489)">
<path d="M15.8516 12.1016L11.5 16.4609L9.39844 14.3516L10.1016 13.6484L11.5 15.0391L15.1484 11.3984L15.8516 12.1016ZM8 5.75H5V4.75H8V5.75ZM8 7.75H5V6.75H8V7.75ZM5 8.75H8V9.75H5V8.75ZM4 5.75H3V4.75H4V5.75ZM4 7.75H3V6.75H4V7.75ZM3 8.75H4V9.75H3V8.75ZM9 5.75V1.75H2V15.75H9V16.75H1V0.75H9.71094L14 5.03906V10.75L13 11.75V5.75H9ZM10 4.75H12.2891L10 2.46094V4.75Z" fill="#666666"/>
</g>
<defs>
<clipPath id="clip0_66_3489">
<rect width="16" height="16" fill="white" transform="translate(0 0.75)"/>
</clipPath>
</defs>
</svg>
